<svg width="23" height="23" fill="none" xmlns="http://www.w3.org/2000/svg"><path d="M11.5 0C5.149 0 0 5.149 0 11.5S5.149 23 11.5 23 23 17.851 23 11.5 17.851 0 11.5 0zm7.735 5.605a9.679 9.679 0 011.99 5.69c-1.981-.375-4.273-.558-6.704-.068a43.769 43.769 0 00-.922-2.011c2.86-1.197 4.683-2.68 5.636-3.61zm-1.204-1.312c-.827.8-2.53 2.192-5.266 3.317A45.148 45.148 0 009.2 2.047a9.693 9.693 0 018.831 2.246zM7.441 2.66a43.238 43.238 0 013.64 5.556C8.697 8.97 5.7 9.472 2.014 9.343A9.765 9.765 0 017.441 2.66zM1.77 11.5c0-.133.005-.265.01-.396.492.02.977.033 1.447.033 3.5 0 6.377-.54 8.707-1.304.305.615.59 1.234.863 1.855-2.771.928-5.666 2.836-8.448 6.402A9.693 9.693 0 011.77 11.5zm3.894 7.78c2.591-3.358 5.248-5.129 7.809-5.96.927 2.393 1.589 4.79 1.939 7.088a9.677 9.677 0 01-3.911.823 9.68 9.68 0 01-5.837-1.95zm11.394.201c-.378-2.15-1.009-4.372-1.855-6.59 2.089-.363 4.086-.18 5.9.181a9.743 9.743 0 01-4.045 6.409z" fill="url(#paint0_linear_326_298)"/><defs><linearGradient id="paint0_linear_326_298" x1="21.985" y1="21.647" x2="-2.977" y2="9.802" gradientUnits="userSpaceOnUse"><stop stop-color="#FFE5A2"/><stop offset=".505" stop-color="#BF841A"/><stop offset="1" stop-color="#FFCD74"/></linearGradient></defs></svg>