<svg width="27" height="23" fill="none" xmlns="http://www.w3.org/2000/svg"><path d="M3.26 0C1.376 0 .006 1.113.006 2.643c0 1.535 1.403 2.697 3.256 2.697 1.886 0 3.255-1.134 3.255-2.729C6.43 1.076 5.087 0 3.261 0zM.544 6.415A.54.54 0 000 6.95v15.515A.54.54 0 00.543 23h5.435a.54.54 0 00.544-.535V6.95a.54.54 0 00-.544-.535H.543zm10.153 0a.54.54 0 00-.544.535v15.515a.54.54 0 00.544.535h4.891c.3 0 .543-.24.543-.535v-8.293c0-1.268.99-2.3 2.25-2.397.066-.01.13-.01.196-.01.065 0 .13 0 .195.01 1.261.097 2.25 1.13 2.25 2.397v8.293a.54.54 0 00.544.535h4.891a.54.54 0 00.544-.535V13.37c0-3.462-1.886-6.955-6.093-6.955a7.425 7.425 0 00-4.233 1.332V6.95a.54.54 0 00-.544-.535h-5.434z" fill="url(#paint0_linear_326_290)"/><defs><linearGradient id="paint0_linear_326_290" x1="25.809" y1="21.647" x2="-1.591" y2="6.384" gradientUnits="userSpaceOnUse"><stop stop-color="#FFE5A2"/><stop offset=".505" stop-color="#BF841A"/><stop offset="1" stop-color="#FFCD74"/></linearGradient></defs></svg>