<svg width="23" height="23" fill="none" xmlns="http://www.w3.org/2000/svg"><path d="M6.389 0A6.396 6.396 0 000 6.389V16.61A6.396 6.396 0 006.389 23H16.61A6.396 6.396 0 0023 16.611V6.39A6.396 6.396 0 0016.611 0H6.39zm0 2.556H16.61a3.838 3.838 0 013.833 3.833V16.61a3.838 3.838 0 01-3.833 3.833H6.39a3.838 3.838 0 01-3.833-3.833V6.39A3.838 3.838 0 016.39 2.557zm11.5 1.277a1.278 1.278 0 100 2.556 1.278 1.278 0 000-2.556zM11.5 5.111A6.396 6.396 0 005.111 11.5a6.396 6.396 0 006.389 6.389 6.396 6.396 0 006.389-6.389A6.396 6.396 0 0011.5 5.111zm0 2.556a3.838 3.838 0 013.833 3.833 3.838 3.838 0 01-3.833 3.833A3.838 3.838 0 017.667 11.5 3.838 3.838 0 0111.5 7.667z" fill="url(#paint0_linear_326_304)"/><defs><linearGradient id="paint0_linear_326_304" x1="21.985" y1="21.647" x2="-2.977" y2="9.802" gradientUnits="userSpaceOnUse"><stop stop-color="#FFE5A2"/><stop offset=".505" stop-color="#BF841A"/><stop offset="1" stop-color="#FFCD74"/></linearGradient></defs></svg>